<svg width="356" height="48" viewBox="0 0 356 48" fill="none" xmlns="http://www.w3.org/2000/svg">
<path d="M97.2705 29.3136H95.664C95.664 29.4285 95.6006 29.6982 95.7695 29.6982H124.248C124.879 29.6982 125.001 29.663 125.47 29.3488C125.47 29.7592 125.388 30.2095 125.367 30.6058C125.318 31.4806 125.121 31.5862 125.634 31.6002C125.782 31.6049 125.766 31.5604 125.784 31.0913L126.073 27.89C126.122 27.5148 126.169 27.0105 126.2 26.6212C126.265 25.7605 126.411 24.7098 126.411 23.8679C126.411 22.3106 125.522 20.9081 124.211 20.1693C124.152 20.1365 124.122 20.1271 124.065 20.1037L123.932 20.0286H133.913L136.043 24.8107C136.228 25.1929 136.39 25.6034 136.566 25.9974C136.652 26.1897 136.763 26.4101 136.84 26.5954C137.119 27.2849 137.666 28.6241 138.235 29.0744C138.329 29.1471 138.454 29.1869 138.486 29.2784H135.346V29.6279H143.268V29.2784C142.525 29.2784 141.866 29.2878 141.392 28.7132C140.937 28.1574 140.44 26.7924 140.081 26.0443L138.946 23.5161C138.658 22.8054 138.313 22.123 138.008 21.417L136.676 18.4549C136.613 18.2978 136.556 18.204 136.491 18.0469L136.111 17.2049C136.047 17.0783 135.975 16.9141 135.916 16.771L135.355 15.5187C135.313 15.4295 135.304 15.385 135.262 15.2982C134.577 13.8277 133.958 12.3361 133.273 10.8656C133.139 10.5795 133.015 10.3168 132.891 10.026L131 5.80686C130.883 5.52777 130.719 5.24399 130.63 4.95552C130.426 4.28946 130.351 3.29741 130.351 2.47656H127.21C127.074 2.47656 126.697 3.4006 126.617 3.55774C126.554 3.68438 126.504 3.81806 126.443 3.94236L126.082 4.69754C126.014 4.83357 125.963 4.93207 125.895 5.0681C125.824 5.20647 125.791 5.31435 125.721 5.45272C124.591 7.69715 123.599 10.0096 122.475 12.2564L121.755 13.7691C121.687 13.9121 121.652 14.013 121.582 14.1537C121.27 14.7729 120.946 15.4084 120.676 16.0393C120.451 16.5693 120.189 17.0314 119.963 17.5591C119.851 17.8217 119.722 18.0492 119.605 18.3166L118.162 21.342C118.031 21.6023 117.932 21.8368 117.801 22.0972L115.824 26.2624C115.779 26.3585 115.702 26.5884 115.592 26.5884H113.812V4.395C113.812 2.66888 114.862 2.9292 116.849 2.9292V2.47656H107.669V2.75565C107.669 2.91748 107.949 2.86119 108.122 2.86119C109.708 2.8565 110.531 2.67826 110.531 4.4677V24.9865C110.531 26.8346 109.658 26.5931 107.808 26.5931C107.416 26.5931 107.285 26.4899 107.285 26.8722C107.285 27.034 107.564 26.9777 107.737 26.9777H116.324C116.368 26.7854 116.56 26.4946 116.647 26.2905C116.76 26.0232 116.868 25.8262 116.987 25.5823C117.044 25.4697 117.076 25.3665 117.137 25.2445C117.203 25.1155 117.248 25.0264 117.313 24.8951L118.151 23.1502C118.214 23.0189 118.251 22.911 118.312 22.789C118.371 22.6718 118.427 22.5568 118.486 22.4396L118.824 21.729C119.29 20.8049 119.703 19.841 120.16 18.9123L121.335 16.4591C121.401 16.3301 121.446 16.241 121.511 16.1097C122.091 14.9511 122.597 13.762 123.174 12.6082C123.24 12.4792 123.284 12.3901 123.35 12.2587L125.712 7.3266C126.047 6.57142 126.898 5.0681 126.898 4.35982H127.248C127.248 5.22054 127.548 5.81859 127.888 6.54797C128.596 8.06302 129.251 9.60856 129.936 11.133L132.379 16.6116C132.649 17.2143 132.895 17.8592 133.193 18.4479L133.601 19.3673H121.91C121.821 19.5549 121.706 19.8082 121.701 20.031C122.719 20.031 123.716 20.1951 124.483 20.8448C124.905 21.2013 125.259 21.7078 125.402 22.2637C125.573 22.9391 125.494 23.7131 125.435 24.3932C125.414 24.6488 125.374 24.9396 125.322 25.1882C125.13 26.1381 124.898 26.6236 124.314 27.3553C124.208 27.4866 124.232 27.4749 124.089 27.5851L123.577 27.9815C121.713 29.1729 118.995 28.9665 116.291 28.9665H101.668C101.893 28.6288 102.095 28.61 102.381 27.8994C102.59 27.3811 102.54 26.9683 102.54 26.2788L102.585 4.0221C102.707 3.09103 103.155 2.89637 104.182 2.89637H106.241V2.51174H95.6663V2.89637H97.7255C99.1561 2.89637 99.332 3.33728 99.332 4.74679V27.1864C99.332 28.8586 98.9849 29.3159 97.2728 29.3159L97.2705 29.3136Z" fill="white"/>
<path d="M20.7252 16.5482C20.6314 16.4474 20.5493 16.4122 20.4438 16.3067C20.3265 16.1871 20.2773 16.1495 20.1483 16.0417C19.4306 15.4342 19.0695 15.2232 18.2299 14.7494C17.6693 14.4328 16.4732 14.0458 15.8728 13.8957C15.4132 13.7808 14.4586 13.6096 13.9943 13.6096C14.0084 13.4314 13.9802 13.497 14.4938 13.4103C15.7345 13.1992 16.9939 12.6457 17.9437 11.8694C18.4362 11.4684 18.9405 10.9383 19.2758 10.3755C20.0123 9.1395 20.1858 7.97624 19.6394 6.60425C19.4517 6.1352 19.2149 5.76464 18.9076 5.4152C18.8209 5.3167 18.7951 5.26979 18.6966 5.17129C18.6074 5.08217 18.5418 5.0165 18.4527 4.92738C18.0235 4.50288 17.2073 4.01507 16.6914 3.75708C15.0872 2.95031 12.6645 2.47656 10.2583 2.47656H0.00234528V2.75565C0.00234528 2.92217 0.286124 2.86119 0.595701 2.86119C1.17733 2.86119 2.19753 2.83774 2.67596 2.91044C3.62815 3.05585 3.66567 3.73832 3.66567 4.74679V27.3952C3.66567 28.0636 3.62111 28.7296 3.206 28.9946C2.69942 29.3206 0.780978 29.2432 0 29.2432V29.6279H12.3221C13.0374 29.6279 13.7879 29.5387 14.4375 29.4379C16.5225 29.1189 18.9076 28.291 20.5493 26.8933C20.8144 26.6681 21.2459 26.2741 21.4312 26.0302C21.9964 25.2961 22.3716 24.9045 22.7281 23.835C23.5443 21.3795 22.8383 19.0272 21.2342 17.1181L20.7276 16.5435L20.7252 16.5482ZM19.2383 23.5981C19.0226 24.4636 18.6426 25.2328 18.129 25.9106C18.0493 26.0138 17.9648 26.131 17.8781 26.2178L16.9845 27.0692C16.4005 27.5452 15.4695 28.0612 14.7565 28.2981C13.3681 28.7601 12.4159 28.9313 10.8164 28.9313H6.21499C6.2619 28.7578 6.8787 28.3286 6.8787 27.292V4.84999C6.8787 3.95643 6.52222 3.63279 6.21499 3.17546H9.46086C9.66959 3.17546 9.71415 3.20829 9.91115 3.21063C11.8765 3.23409 14.1702 3.8978 15.3264 5.33311C16.098 6.29233 16.3677 7.08269 16.3677 8.48048C16.3677 10.1785 15.249 11.6372 13.8887 12.4229C12.2189 13.3868 10.6382 13.361 8.75962 13.3305C8.38203 13.3235 8.44769 13.239 8.44769 14.0294C10.8751 14.0294 12.505 13.877 14.7495 14.8127C15.4929 15.1223 16.2598 15.6007 16.8696 16.1144C17.871 16.9563 18.7622 18.197 19.1469 19.5596C19.5104 20.8424 19.5714 22.2684 19.2383 23.6005V23.5981Z" fill="white"/>
<path d="M52.5625 27.6386C52.2505 27.7231 51.4602 28.7902 50.4329 28.7902C49.2251 28.7902 48.1088 27.3549 47.5506 26.6114C47.3606 26.3581 47.2129 26.1353 47.0276 25.8797C46.9291 25.746 46.8681 25.6334 46.7743 25.5044C46.2232 24.761 45.5219 23.6915 44.9544 22.8918C44.7245 22.5682 44.1734 21.7051 43.899 21.4354C43.777 21.3158 43.7325 21.2173 43.6035 21.1047L43.247 20.7998C42.3746 20.1267 41.8164 19.8242 40.7657 19.5123C40.4092 19.4067 40.0527 19.3833 39.6869 19.2988V19.1253L40.7024 19.0596C41.0542 19.0291 41.3215 18.9869 41.6569 18.933C43.3549 18.6515 44.9356 17.9808 46.249 16.9981C47.4497 16.0999 48.552 14.6669 48.9648 13.187C49.3072 11.9558 49.2861 11.7353 49.2861 10.5064C49.2861 9.27746 48.8147 7.94534 48.1979 6.91811C46.983 4.89882 44.877 3.73087 42.6255 3.06716C41.5021 2.73647 39.9237 2.51367 38.4673 2.51367H27.4727V2.79276C27.4727 2.93348 27.6016 2.90299 27.7494 2.90064C28.4436 2.88892 29.9094 2.85139 30.423 3.01791C31.2532 3.28996 31.0398 4.20227 31.1172 4.69713C31.1571 4.95745 31.1641 25.2394 31.1383 27.2587C31.136 27.4674 31.1008 27.5706 31.1008 27.8145C31.1032 28.1898 31.0609 28.5557 30.9273 28.7925C30.6271 29.3202 29.7828 29.3155 29.1472 29.3155H27.4727C27.4727 29.4914 27.5031 29.4727 27.5078 29.6298H39.0607V29.2803C38.2422 29.2803 35.5615 29.3765 34.9635 29.0833C34.41 28.8136 34.4663 28.2578 34.4076 27.8239C34.3349 27.2681 34.3818 17.4203 34.3818 16.9958V6.13947C34.3818 5.31159 34.478 4.07797 33.9175 3.42599C33.8307 3.32279 33.7533 3.30403 33.7181 3.1727H37.942C38.1976 3.1727 38.3055 3.20787 38.533 3.20787C39.3093 3.20787 40.0551 3.33452 40.6907 3.49165C41.4529 3.68162 42.2057 3.98651 42.8202 4.39928C45.0763 5.91433 45.7236 8.27368 45.7236 11.0575C45.7236 12.4975 45.4352 13.9047 44.8864 15.0023C44.7714 15.2321 44.6636 15.4151 44.5369 15.6285C44.2344 16.1327 43.8451 16.5361 43.4135 16.9137C43.3127 17.0005 43.2423 17.0544 43.1415 17.1318C41.0424 18.7102 38.669 18.5976 36.0916 18.5976V19.2613C37.2103 19.2613 37.8787 19.2988 38.7347 19.9344C39.2976 20.3519 39.2694 20.4222 39.6259 20.7881C39.7033 20.8678 39.7127 20.8983 39.783 20.9804C40.109 21.3533 40.3905 21.7708 40.6883 22.1695C40.7938 22.3102 40.8806 22.4415 40.9768 22.5775L43.0078 25.4317C43.3924 25.997 44.3704 27.3619 44.7738 27.8544C45.5501 28.8066 46.8118 30.0449 48.2026 30.0449C49.3823 30.0449 50.0225 29.8127 50.9677 29.2499C51.6525 28.8394 51.9808 28.5533 52.5625 28.0866C52.6422 28.0233 52.7126 27.9435 52.8111 27.9177C52.7665 27.8497 52.6305 27.6809 52.5671 27.6386H52.5625Z" fill="white"/>
<path d="M333.176 27.6386C332.864 27.7231 332.073 28.7902 331.046 28.7902C329.838 28.7902 328.722 27.3549 328.164 26.6114C327.974 26.3581 327.826 26.1353 327.641 25.8797C327.542 25.746 327.481 25.6334 327.388 25.5044C326.836 24.761 326.135 23.6915 325.568 22.8918C325.338 22.5682 324.787 21.7051 324.512 21.4354C324.39 21.3158 324.346 21.2173 324.217 21.1047L323.86 20.7998C322.988 20.1267 322.43 19.8242 321.379 19.5123C321.023 19.4067 320.666 19.3833 320.3 19.2988V19.1253L321.316 19.0596C321.667 19.0291 321.935 18.9869 322.27 18.933C323.968 18.6515 325.549 17.9808 326.862 16.9981C328.063 16.0999 329.165 14.6669 329.578 13.187C329.92 11.9558 329.899 11.7353 329.899 10.5064C329.899 9.27746 329.428 7.94534 328.811 6.91811C327.596 4.89882 325.49 3.73087 323.239 3.06716C322.115 2.73647 320.537 2.51367 319.081 2.51367H308.086V2.79276C308.086 2.93348 308.215 2.90299 308.363 2.90064C309.057 2.88892 310.523 2.85139 311.036 3.01791C311.867 3.28996 311.653 4.20227 311.731 4.69713C311.77 4.95745 311.777 25.2394 311.752 27.2587C311.749 27.4674 311.714 27.5706 311.714 27.8145C311.716 28.1898 311.674 28.5557 311.541 28.7925C311.24 29.3202 310.396 29.3155 309.76 29.3155H308.086C308.086 29.4914 308.116 29.4727 308.121 29.6298H319.674V29.2803C318.855 29.2803 316.175 29.3765 315.577 29.0833C315.023 28.8136 315.08 28.2578 315.021 27.8239C314.948 27.2681 314.995 17.4203 314.995 16.9958V6.13947C314.995 5.31159 315.091 4.07797 314.531 3.42599C314.444 3.32279 314.367 3.30403 314.331 3.1727H318.555C318.811 3.1727 318.919 3.20787 319.146 3.20787C319.923 3.20787 320.668 3.33452 321.304 3.49165C322.066 3.68162 322.819 3.98651 323.433 4.39928C325.69 5.91433 326.337 8.27368 326.337 11.0575C326.337 12.4975 326.048 13.9047 325.5 15.0023C325.385 15.2321 325.277 15.4151 325.15 15.6285C324.848 16.1327 324.458 16.5361 324.027 16.9137C323.926 17.0005 323.856 17.0544 323.755 17.1318C321.656 18.7102 319.282 18.5976 316.705 18.5976V19.2613C317.824 19.2613 318.492 19.2988 319.348 19.9344C319.911 20.3519 319.883 20.4222 320.239 20.7881C320.317 20.8678 320.326 20.8983 320.396 20.9804C320.722 21.3533 321.004 21.7708 321.302 22.1695C321.407 22.3102 321.494 22.4415 321.59 22.5775L323.621 25.4317C324.006 25.997 324.984 27.3619 325.387 27.8544C326.163 28.8066 327.425 30.0449 328.816 30.0449C329.998 30.0449 330.636 29.8127 331.581 29.2499C332.266 28.8394 332.594 28.5533 333.176 28.0866C333.255 28.0233 333.326 27.9435 333.424 27.9177C333.38 27.8497 333.244 27.6809 333.18 27.6386H333.176Z" fill="white"/>
<path d="M167.794 3.20165C168.123 2.99292 168.467 2.94836 168.944 2.88503L170.039 2.86158C170.353 2.86627 170.316 2.90145 170.316 2.47461H161.87C161.739 2.47461 161.765 2.55669 161.765 2.7537C161.765 2.89441 161.894 2.86158 162.041 2.86158C162.677 2.8522 164.225 2.83344 164.67 2.92021C165.609 3.10314 166.096 3.47604 166.246 4.44933C166.361 5.18575 166.3 9.47761 166.3 10.5729V22.1257C166.3 22.4259 166.336 22.6393 166.336 22.8926H166.092C166.059 22.5056 164.919 20.7185 164.654 20.2823L154.379 3.08907C154.304 2.96477 154.255 2.88034 154.182 2.76073C154.131 2.6763 154.049 2.47461 153.946 2.47461H147.663V2.7537C147.663 2.9249 148.024 2.85923 148.186 2.85923C150.146 2.85923 150.976 2.66927 150.976 4.53376V27.5339C150.976 29.4805 150.233 29.2788 147.66 29.2788V29.6283H155.024V29.2788C154.295 29.2788 152.991 29.3257 152.384 29.1264C151.922 28.9739 151.818 28.6268 151.753 28.1179L151.708 11.7947C151.708 10.9106 151.795 5.62666 151.638 5.30302H151.846C151.903 5.54223 152.574 6.59996 152.742 6.88373L157.438 14.649C157.764 15.1649 158.04 15.6832 158.366 16.1992C159.265 17.6228 160.299 19.3935 161.192 20.8757L165.883 28.6456C166.12 29.0372 166.636 29.8393 166.68 30.3623H166.995V5.3382C166.995 4.50797 167.084 3.64725 167.79 3.20165H167.794Z" fill="white"/>
<path d="M265.218 29.2782C264.489 29.2782 263.185 29.3251 262.578 29.1258C262.116 28.9733 262.012 28.6262 261.947 28.1173L261.902 11.7942C261.902 10.91 261.989 5.62608 261.832 5.30243H262.041C262.097 5.54165 262.768 6.59937 262.937 6.88315L267.632 14.6484C267.958 15.1643 268.234 15.6826 268.56 16.1986C269.459 17.6222 270.493 19.3929 271.387 20.8751L276.077 28.645C276.314 29.0367 276.83 29.8387 276.875 30.3617H277.189V5.33761C277.189 4.50738 277.28 3.64666 277.984 3.20106C278.312 2.99233 278.657 2.94777 279.133 2.88445L280.228 2.861C280.543 2.86569 280.505 2.90087 280.505 2.47403H272.06C271.928 2.47403 271.954 2.55611 271.954 2.75311C271.954 2.89383 272.083 2.861 272.231 2.85865C272.866 2.84927 274.414 2.83051 274.86 2.91728C275.798 3.10021 276.286 3.47311 276.436 4.4464C276.551 5.18282 276.49 9.47468 276.49 10.5699V22.1228C276.49 22.423 276.525 22.6364 276.525 22.8897H276.281C276.248 22.5027 275.109 20.7156 274.843 20.2794L264.569 3.08614C264.494 2.96184 264.445 2.87741 264.372 2.7578C264.32 2.67337 264.238 2.47168 264.135 2.47168H257.852V2.75077C257.852 2.92197 258.213 2.85631 258.375 2.85631C260.336 2.85631 261.166 2.66634 261.166 4.53083V27.5333C261.166 29.4799 260.422 29.2782 257.85 29.2782V29.6277H265.214V29.2782H265.218Z" fill="white"/>
<path d="M175.437 6.68925C175.566 5.83088 175.706 5.22345 176.103 4.63244C176.469 4.08599 177.006 3.74358 177.686 3.52781C178.312 3.32846 179.271 3.20886 180.09 3.20886H183.406V26.6968C183.406 27.1776 183.401 28.2213 183.286 28.566C183.068 29.225 182.512 29.2016 181.942 29.2461C181.201 29.3048 179.374 29.2837 178.45 29.279C177.998 29.2766 178.03 29.2133 178.03 29.6284H191.922V29.279H188.746C186.896 29.279 186.652 29.0421 186.652 27.3934V3.20886C188.148 3.20886 190.913 3.08456 192.205 3.51843C192.869 3.74123 193.401 4.02501 193.8 4.61133C194.154 5.12964 194.393 5.85433 194.499 6.60013L194.68 8.41068C194.691 8.66632 194.715 8.8258 194.715 9.0744C195.697 9.0744 195.498 9.00873 195.484 8.79766L194.989 1.43582C194.973 1.28338 194.966 1.03244 194.94 0.856541C194.907 0.63843 194.938 0.478951 194.891 0.277257C194.658 0.331198 194.715 0.312436 194.438 0.312436C194.438 1.0254 194.602 1.99869 194.612 2.47713H175.38L175.549 0.354651C175.507 0.235042 175.415 0.281947 175.242 0.267876C175.089 0.256149 175.08 0.209244 175.064 0.413283C175.019 0.959733 174.965 2.08078 174.902 2.55687L174.752 4.71218C174.747 4.88573 174.712 5.26332 174.691 5.42045L174.543 7.57576C174.541 7.91349 174.438 8.66397 174.438 9.04156C175.338 9.04156 175.209 9.29251 175.272 8.54906L175.439 6.6916L175.437 6.68925Z" fill="white"/>
<path d="M303.338 1.43289C303.322 1.28045 303.315 1.02951 303.289 0.853611C303.256 0.6355 303.287 0.476021 303.24 0.274327C303.008 0.328268 303.064 0.309506 302.787 0.309506C302.787 1.02247 302.951 1.99576 302.961 2.4742H283.73L283.898 0.351721C283.856 0.232112 283.765 0.279018 283.591 0.264946C283.439 0.25322 283.429 0.206314 283.413 0.410353C283.368 0.956803 283.314 2.07785 283.251 2.55394L283.103 4.70925C283.099 4.8828 283.063 5.26039 283.042 5.41752L282.895 7.57283C282.892 7.91056 282.789 8.66105 282.789 9.03864C283.69 9.03864 283.561 9.28958 283.624 8.54613L283.791 6.68867C283.919 5.83029 284.06 5.22287 284.457 4.63186C284.822 4.08541 285.359 3.74299 286.04 3.52723C286.666 3.32788 287.625 3.20827 288.444 3.20827H291.76V26.6962C291.76 27.177 291.755 28.2207 291.64 28.5654C291.422 29.2245 290.866 29.201 290.296 29.2456C289.555 29.3042 287.728 29.2831 286.804 29.2784C286.352 29.276 286.384 29.2127 286.384 29.6278H300.275V29.2784H297.1C295.25 29.2784 295.006 29.0415 295.006 27.3928V3.20827C296.502 3.20827 299.267 3.08397 300.559 3.51785C301.223 3.74065 301.755 4.02443 302.154 4.61075C302.508 5.12905 302.747 5.85375 302.853 6.59954L303.033 8.4101C303.045 8.66574 303.069 8.82522 303.069 9.07381C304.051 9.07381 303.852 9.00815 303.838 8.79707L303.343 1.43524L303.338 1.43289Z" fill="white"/>
<path d="M89.9013 22.0503C89.8638 22.4067 89.8145 22.8617 89.8028 23.2417C89.791 23.6075 89.7301 24.0695 89.7019 24.4307C89.6667 24.8693 89.6198 25.2258 89.5331 25.5869C88.7685 28.7554 85.3561 28.929 82.4058 28.929H77.1711L77.5909 28.406C77.7433 28.1761 77.8184 28.0589 77.9192 27.7563C78.0248 27.4374 78.0459 27.3553 78.0459 26.9402C78.0295 19.583 78.074 12.2001 78.0459 4.84764C78.0459 4.64595 78.074 4.592 78.0811 4.43018C78.0998 4.09011 78.06 3.56243 78.3508 3.23409C78.7776 2.74862 80.0605 2.86119 80.8743 2.86119C81.8617 2.86119 81.7467 2.96438 81.7467 2.47656H71.1719V2.75565C71.1719 2.92217 71.4557 2.86119 71.7652 2.86119C72.382 2.86119 73.2709 2.84243 73.8197 2.90106C74.8071 3.0066 74.8375 3.72894 74.8375 4.71161V27.0809C74.8375 29.5622 73.9815 29.2808 71.1719 29.2808V29.6302H89.0054C89.4252 29.6302 89.5166 29.452 89.7723 29.3159C89.7723 29.4238 89.7465 29.7287 89.7277 29.8647L89.5987 31.5486C89.8684 31.5486 89.791 31.5299 90.0185 31.5838L90.4383 26.2108C90.5064 25.3337 90.6025 24.4237 90.6471 23.5208C90.6752 22.9274 90.8558 21.335 90.8558 20.8331H89.9834L89.9083 22.0503H89.9013Z" fill="white"/>
<path d="M66.7682 29.279C65.8747 29.279 63.7475 29.4244 63.3465 28.8615C63.0463 28.4394 63.0697 27.4567 63.0697 26.8704V5.37357C63.0697 4.77552 63.0697 3.87493 63.2667 3.47624C63.4989 3.00249 64.1321 2.93213 64.8146 2.93213H66.7682V2.47949H56.1934V2.75858C56.1934 2.89226 56.3036 2.86646 56.4349 2.86646C57.1033 2.86177 58.2783 2.84301 58.8412 2.90399C59.2422 2.9462 59.5659 3.10568 59.7066 3.43637C59.8262 3.72249 59.859 4.31116 59.859 4.71454V27.4661C59.859 29.5393 59.2751 29.2813 56.1934 29.2813V29.6308H66.7682V29.2813V29.279Z" fill="white"/>
<path d="M254.789 21.6352H254.233C253.996 24.3323 253.434 26.2554 252.547 27.4069C251.66 28.5561 250.174 29.133 248.086 29.133H240.868V15.8072H243.961C245.652 15.8072 246.876 16.1191 247.629 16.7382C248.382 17.3597 248.759 18.4503 248.759 20.0099H249.275V11.0439H248.759C248.759 12.5777 248.389 13.6612 247.648 14.2968C246.907 14.9324 245.678 15.249 243.959 15.249H240.865V3.27165H247.608C249.695 3.27165 251.177 3.84155 252.05 4.97667C252.922 6.11413 253.478 8.03022 253.715 10.7273H254.271L253.715 2.71582H234.955V3.23178H237.692V29.1307H234.955V29.6865H254.229L254.784 21.6352H254.789Z" fill="white"/>
<path d="M355.098 21.6352C354.862 24.3323 354.299 26.2554 353.412 27.4069C352.526 28.5561 351.039 29.133 348.952 29.133H341.733V15.8072H344.826C346.517 15.8072 347.741 16.1191 348.494 16.7382C349.247 17.3597 349.625 18.4503 349.625 20.0099H350.141V11.0439H349.625C349.625 12.5777 349.254 13.6612 348.513 14.2968C347.772 14.9324 346.543 15.249 344.824 15.249H341.73V3.27165H348.473C350.56 3.27165 352.043 3.84155 352.915 4.97667C353.787 6.11413 354.343 8.03022 354.58 10.7273H355.136L354.58 2.71582H335.82V3.23178H338.557V29.1307H335.82V29.6865H355.094L355.65 21.6352H355.094H355.098Z" fill="white"/>
<path d="M230.231 24.3417C230.142 24.2995 230.01 24.2315 229.926 24.2245C229.565 25.0406 229.244 25.6504 228.718 26.3047C228.653 26.3868 228.608 26.4384 228.538 26.5017L227.926 27.1185C225.695 29.1097 222.742 29.6843 220.034 29.0182C218.873 28.7321 217.876 28.2044 216.952 27.3789C216.595 27.0599 216.223 26.7105 215.948 26.3L215.383 25.4581C215.116 25.0313 214.872 24.5458 214.67 24.065C213.08 20.2586 212.888 14.576 213.776 10.4155C213.814 10.2349 213.859 10.066 213.908 9.88309C214.18 8.88635 214.541 7.94355 215.026 7.07579C215.557 6.12361 216.251 5.31918 217.057 4.70237C217.306 4.5124 217.538 4.37169 217.803 4.21221C219.145 3.41012 220.611 3.21077 222.142 3.21077C223.247 3.21077 224.342 3.5954 225.135 3.98941C225.972 4.40687 226.765 5.01429 227.358 5.72022C228.003 6.48947 228.495 7.33612 228.716 8.44778C228.843 9.08335 228.791 9.73769 228.826 10.4905C228.833 10.6688 228.857 10.779 228.854 11.0088L228.882 12.6318L229.548 12.5966C229.548 12.3292 229.52 12.1604 229.518 11.9422C229.516 11.7241 229.532 11.4638 229.518 11.2527C229.459 10.4155 229.431 9.37182 229.434 8.56035L229.347 5.87032C229.347 5.36609 229.316 4.99084 229.319 4.48895C229.319 4.22628 229.288 4.10667 229.288 3.83462L229.26 2.48843C229.26 2.22107 229.229 2.08269 229.229 1.79892C228.819 1.79892 228.899 1.71918 228.913 2.14367C228.918 2.31019 228.913 2.49546 228.913 2.66198C228.913 3.20843 228.96 5.34967 229.058 5.59592C229.002 5.62876 228.925 5.64517 228.857 5.66394C228.744 5.41065 228.685 5.22771 228.54 5.00726C228.32 4.67188 227.245 3.97064 226.929 3.79006C226.819 3.72674 226.729 3.68921 226.631 3.62823C226.34 3.45468 226.005 3.321 225.69 3.1967C222.857 2.07097 219.354 2.45559 216.776 3.74784C216.476 3.89794 216.166 4.04335 215.89 4.24504C215.43 4.57807 214.958 4.87358 214.532 5.24648C214.189 5.54667 213.882 5.87267 213.561 6.19397C213.014 6.73807 212.343 7.79814 211.966 8.46889C211.724 8.90042 211.537 9.3343 211.333 9.81977C210.81 11.0675 210.254 13.3142 210.223 14.7777C210.219 14.9794 210.193 15.0404 210.193 15.2608C210.193 15.4719 210.183 15.5868 210.169 15.7486C210.141 16.0441 210.202 16.4475 210.221 16.7125C210.244 17.0526 210.233 17.3763 210.254 17.7093C210.273 18.0048 210.317 18.3496 210.355 18.6591C210.753 21.8909 212.001 24.7334 214.063 26.7996C214.37 27.1068 214.712 27.4399 215.057 27.6838C216.316 28.5797 217.184 29.0839 218.753 29.5553C219.977 29.9235 221.173 30.0314 222.55 30.0314C224.816 30.0314 226.955 29.1543 228.477 27.7142C228.554 27.6392 228.608 27.5806 228.683 27.5126L229.11 27.0552C229.187 26.9544 229.211 26.8981 229.298 26.7949C229.602 26.4361 230.501 24.9656 230.533 24.4754C230.419 24.4426 230.341 24.4027 230.231 24.3511V24.3417Z" fill="white"/>
<path d="M72.6805 38.6221H71.5266L67.6733 42.5903V38.6221H66.6602V45.7165H67.6733V43.8802L68.9773 42.5598L71.6884 45.7165H72.8728L69.6527 41.8187L72.6805 38.6221Z" fill="white"/>
<path d="M79.5878 39.5696C79.2477 39.2413 78.849 38.988 78.3917 38.8097C77.9344 38.6315 77.4372 38.54 76.8978 38.54C76.3584 38.54 75.8471 38.6315 75.3874 38.8144C74.9277 38.9974 74.529 39.253 74.1913 39.579C73.8536 39.9073 73.5909 40.2896 73.401 40.7282C73.211 41.1668 73.1172 41.6475 73.1172 42.1682C73.1172 42.6888 73.211 43.1673 73.401 43.6082C73.5909 44.0491 73.8536 44.4314 74.1913 44.7574C74.529 45.0857 74.9301 45.3413 75.3921 45.5219C75.8541 45.7049 76.356 45.7963 76.8978 45.7963C77.4395 45.7963 77.9367 45.7072 78.3917 45.529C78.8467 45.3507 79.2454 45.0974 79.5878 44.7691C79.9279 44.4408 80.1929 44.0585 80.3782 43.6199C80.5634 43.1813 80.6573 42.6982 80.6573 42.1705C80.6573 41.6428 80.5634 41.1597 80.3782 40.7211C80.1929 40.2826 79.9279 39.898 79.5878 39.572V39.5696ZM79.4354 43.2541C79.297 43.5847 79.1047 43.8732 78.8584 44.1195C78.6122 44.3657 78.3214 44.558 77.986 44.6917C77.6506 44.8277 77.2871 44.8934 76.8954 44.8934C76.5038 44.8934 76.1309 44.8254 75.7955 44.6917C75.4601 44.558 75.1693 44.3657 74.9184 44.1195C74.6674 43.8732 74.4751 43.5847 74.3367 43.2541C74.1984 42.9234 74.128 42.5622 74.128 42.1705C74.128 41.7789 74.196 41.4177 74.3367 41.087C74.4751 40.7563 74.6698 40.4679 74.9184 40.2216C75.1693 39.9753 75.4601 39.7854 75.7955 39.6494C76.1309 39.5157 76.4967 39.4477 76.8954 39.4477C77.2941 39.4477 77.6506 39.5157 77.986 39.6494C78.3214 39.7854 78.6098 39.9753 78.8584 40.2216C79.1047 40.4679 79.297 40.7563 79.4354 41.087C79.5737 41.4177 79.6441 41.7789 79.6441 42.1705C79.6441 42.5622 79.5761 42.9234 79.4354 43.2541Z" fill="white"/>
<path d="M82.4123 39.71L82.7852 38.1973H82.1473L81.6712 39.6162C81.6243 39.7381 81.5868 39.8413 81.5586 39.9257C81.5305 40.0102 81.5117 40.0829 81.5024 40.1438C81.493 40.2048 81.4883 40.2681 81.4883 40.3362C81.4883 40.5308 81.5516 40.695 81.6806 40.8287C81.8096 40.96 81.9714 41.0257 82.1661 41.0257C82.3607 41.0257 82.5132 40.9624 82.6422 40.8334C82.7711 40.7044 82.8345 40.5402 82.8345 40.3362C82.8345 40.1321 82.7711 39.9703 82.6422 39.8507C82.5741 39.7874 82.4968 39.7428 82.4123 39.7123V39.71Z" fill="white"/>
<path d="M88.7462 38.9152C88.3076 38.7206 87.7776 38.6221 87.1561 38.6221H84.3887V45.7165H85.4018V43.5683H87.1561C87.7776 43.5683 88.3076 43.4698 88.7462 43.2704C89.1848 43.0711 89.5225 42.7873 89.7594 42.4191C89.9962 42.0509 90.1135 41.61 90.1135 41.0963C90.1135 40.5827 89.9962 40.1395 89.7594 39.7689C89.5225 39.3984 89.1848 39.1146 88.7462 38.9176V38.9152ZM88.5985 42.269C88.2631 42.5457 87.7729 42.6841 87.1233 42.6841H85.3995V39.5015H87.1233C87.7729 39.5015 88.2631 39.6399 88.5985 39.9167C88.9338 40.1934 89.1003 40.5851 89.1003 41.0916C89.1003 41.5982 88.9338 41.9899 88.5985 42.2666V42.269Z" fill="white"/>
<path d="M94.4297 45.7165H95.4452V42.8483H99.0006V41.9758H95.4452V39.5039H99.4369V38.6221H94.4297V45.7165Z" fill="white"/>
<path d="M105.824 42.6161C105.824 43.4064 105.65 43.9834 105.301 44.3492C104.951 44.7151 104.459 44.8957 103.816 44.8957C103.173 44.8957 102.69 44.7128 102.341 44.3492C101.994 43.9834 101.818 43.4064 101.818 42.6161V38.6221H100.805V42.6559C100.805 43.6832 101.072 44.4642 101.604 44.9965C102.137 45.5313 102.871 45.7963 103.804 45.7963C104.738 45.7963 105.479 45.5289 106.009 44.9965C106.539 44.4642 106.804 43.6832 106.804 42.6559V38.6221H105.821V42.6161H105.824Z" fill="white"/>
<path d="M113.972 43.9083L109.715 38.6221H108.885V45.7165H109.898V40.4303L114.155 45.7165H114.985V38.6221H113.972V43.9083Z" fill="white"/>
<path d="M123.134 38.6221H121.977L118.126 42.5903V38.6221H117.113V45.7165H118.126V43.8802L119.428 42.5598L122.139 45.7165H123.326L120.106 41.8187L123.134 38.6221Z" fill="white"/>
<path d="M128.216 42.3023C127.963 42.1615 127.681 42.0466 127.374 41.9575C127.067 41.8707 126.762 41.791 126.457 41.7183C126.152 41.6456 125.873 41.5682 125.62 41.4791C125.366 41.3923 125.16 41.2727 125.001 41.1249C124.841 40.9772 124.761 40.7778 124.761 40.5269C124.761 40.3182 124.82 40.1282 124.94 39.9593C125.057 39.7905 125.244 39.6544 125.502 39.5536C125.758 39.4527 126.086 39.4011 126.485 39.4011C126.802 39.4011 127.13 39.4457 127.468 39.5372C127.805 39.6286 128.127 39.7764 128.432 39.9781L128.767 39.1666C128.469 38.9649 128.117 38.8078 127.712 38.6999C127.306 38.592 126.898 38.5381 126.485 38.5381C125.864 38.5381 125.352 38.6319 124.949 38.8172C124.548 39.0024 124.25 39.2487 124.058 39.5559C123.865 39.8632 123.769 40.1985 123.769 40.5644C123.769 40.9303 123.847 41.2516 124.001 41.4931C124.156 41.7324 124.36 41.9247 124.614 42.0654C124.867 42.2061 125.148 42.3234 125.456 42.4148C125.763 42.5063 126.068 42.586 126.373 42.654C126.677 42.7221 126.956 42.8018 127.21 42.8933C127.463 42.9847 127.669 43.1043 127.829 43.2521C127.988 43.3998 128.068 43.5969 128.068 43.8408C128.068 44.0495 128.007 44.2371 127.885 44.4036C127.763 44.5701 127.573 44.6991 127.318 44.7929C127.06 44.8868 126.727 44.9337 126.314 44.9337C125.861 44.9337 125.425 44.8563 125.005 44.7015C124.585 44.5467 124.241 44.3497 123.971 44.1128L123.596 44.9032C123.879 45.1658 124.269 45.3816 124.761 45.5458C125.254 45.7123 125.772 45.7944 126.312 45.7944C126.933 45.7944 127.449 45.7006 127.857 45.5153C128.265 45.33 128.568 45.0838 128.765 44.7765C128.959 44.4693 129.058 44.1363 129.058 43.7774C129.058 43.4186 128.98 43.102 128.826 42.8651C128.671 42.6283 128.467 42.4406 128.214 42.2976L128.216 42.3023Z" fill="white"/>
<path d="M131.556 38.6221H130.543V45.7165H131.556V38.6221Z" fill="white"/>
<path d="M139.219 38.6221H138.215L135.936 42.3651L133.666 38.6221H132.582L135.399 43.247V45.7165H136.402V43.261L139.219 38.6221Z" fill="white"/>
<path d="M141.955 38.6221L138.742 45.7165H139.786L140.564 43.9435H144.336L145.114 45.7165H146.179L142.957 38.6221H141.953H141.955ZM140.921 43.132L142.45 39.6516L143.979 43.132H140.919H140.921Z" fill="white"/>
<path d="M148.249 38.6221H147.236V45.7165H152.091V44.8347H148.249V38.6221Z" fill="white"/>
<path d="M154.267 38.6221H153.254V45.7165H154.267V38.6221Z" fill="white"/>
<path d="M165.835 38.6221L162.913 43.6058L159.955 38.6221H159.125V45.7165H160.098V40.5757L162.662 44.8558H163.128L165.692 40.5429L165.701 45.7165H166.674L166.665 38.6221H165.835Z" fill="white"/>
<path d="M170.944 38.6221L167.73 45.7165H168.774L169.553 43.9435H173.324L174.103 45.7165H175.167L171.945 38.6221H170.941H170.944ZM169.909 43.132L171.438 39.6516L172.967 43.132H169.907H169.909Z" fill="white"/>
<path d="M175.937 39.5043H178.501V43.4866C178.501 44.4458 178.095 44.9266 177.283 44.9266C176.986 44.9266 176.713 44.8539 176.467 44.7085C176.221 44.5631 176.001 44.3543 175.803 44.0846L175.215 44.7741C175.445 45.1048 175.743 45.3581 176.106 45.534C176.47 45.7099 176.864 45.7967 177.281 45.7967C178.01 45.7967 178.564 45.602 178.939 45.208C179.314 44.8163 179.502 44.2253 179.502 43.435V38.6201H175.935V39.5019L175.937 39.5043Z" fill="white"/>
<path d="M188.284 38.6221L185.364 43.6058L182.404 38.6221H181.574V45.7165H182.548V40.5757L185.111 44.8558H185.578L188.143 40.5429L188.153 45.7165H189.124L189.114 38.6221H188.284Z" fill="white"/>
<path d="M196.208 42.6161C196.208 43.4064 196.035 43.9834 195.685 44.3492C195.338 44.7151 194.841 44.8957 194.201 44.8957C193.561 44.8957 193.075 44.7128 192.726 44.3492C192.379 43.9834 192.203 43.4064 192.203 42.6161V38.6221H191.189V42.6559C191.189 43.6832 191.457 44.4642 191.989 44.9965C192.524 45.5313 193.256 45.7986 194.189 45.7986C195.122 45.7986 195.864 45.5313 196.394 44.9965C196.924 44.4642 197.189 43.6832 197.189 42.6559V38.6221H196.206V42.6161H196.208Z" fill="white"/>
<path d="M201.256 38.6221L198.043 45.7165H199.087L199.865 43.9435H203.639L204.417 45.7165H205.482L202.26 38.6221H201.256ZM200.222 43.132L201.751 39.6516L203.28 43.132H200.219H200.222Z" fill="white"/>
<path d="M207.914 46.7293H208.796L212.143 37.1816H211.261L207.914 46.7293Z" fill="white"/>
<path d="M219.661 40.6391C219.256 40.4093 218.789 40.2943 218.264 40.2943C217.818 40.2943 217.41 40.3952 217.042 40.5992C216.781 40.7423 216.573 40.9534 216.387 41.1949V38.1953H215.414V45.7166H216.347V44.8301C216.535 45.0904 216.749 45.3156 217.021 45.468C217.389 45.6744 217.802 45.7776 218.261 45.7776C218.789 45.7776 219.253 45.6627 219.659 45.4328C220.065 45.203 220.386 44.8817 220.623 44.4689C220.86 44.0562 220.977 43.5777 220.977 43.0289C220.977 42.4801 220.86 42.004 220.623 41.5936C220.386 41.1855 220.065 40.8666 219.659 40.6367L219.661 40.6391ZM219.758 44.0304C219.598 44.3165 219.382 44.5393 219.108 44.6941C218.833 44.8489 218.526 44.9263 218.181 44.9263C217.837 44.9263 217.539 44.8489 217.264 44.6941C216.99 44.5393 216.774 44.3165 216.615 44.0304C216.455 43.7442 216.376 43.4112 216.376 43.0313C216.376 42.6513 216.455 42.3136 216.615 42.0322C216.774 41.7531 216.99 41.535 217.264 41.3779C217.539 41.2231 217.844 41.1457 218.181 41.1457C218.519 41.1457 218.836 41.2231 219.108 41.3779C219.382 41.5326 219.598 41.7508 219.758 42.0322C219.917 42.3136 219.997 42.6443 219.997 43.0313C219.997 43.4182 219.917 43.7419 219.758 44.0304Z" fill="white"/>
<path d="M224.12 44.6376L222.246 40.3457H221.233L223.604 45.7047L223.433 46.0823C223.297 46.3942 223.151 46.6099 222.997 46.7319C222.842 46.8539 222.645 46.9148 222.408 46.9148C222.225 46.9148 222.054 46.882 221.892 46.814C221.73 46.746 221.58 46.6475 221.446 46.5208L221.031 47.2502C221.207 47.412 221.416 47.5363 221.66 47.6208C221.904 47.7052 222.152 47.7474 222.41 47.7474C222.687 47.7474 222.94 47.7028 223.17 47.6114C223.4 47.5199 223.611 47.3675 223.803 47.1494C223.996 46.9336 224.169 46.6357 224.326 46.2582L226.932 40.3504H225.98L224.125 44.6423L224.12 44.6376Z" fill="white"/>
<path d="M235.553 38.6221H229.686V39.5039H232.118V45.7165H233.121V39.5039H235.553V38.6221Z" fill="white"/>
<path d="M241.796 38.6221H240.692L238.724 41.3426L236.74 38.6221H235.584L238.088 42.0814L235.422 45.7165H236.587L238.686 42.792L240.814 45.7165H241.979L239.296 42.0485L241.796 38.6221Z" fill="white"/>
<path d="M241.848 39.5039H244.28V45.7165H245.283V39.5039H247.716V38.6221H241.848V39.5039Z" fill="white"/>
<path d="M252.779 40.2142C253.032 39.9703 253.332 39.7826 253.682 39.6466C254.029 39.5129 254.407 39.4449 254.812 39.4449C255.218 39.4449 255.582 39.5106 255.922 39.6419C256.262 39.7733 256.578 39.982 256.869 40.2658L257.498 39.6372C257.174 39.2714 256.778 38.9993 256.311 38.8164C255.844 38.6335 255.331 38.542 254.77 38.542C254.21 38.542 253.71 38.6311 253.25 38.8117C252.791 38.9899 252.39 39.2432 252.05 39.5716C251.707 39.8999 251.442 40.2822 251.255 40.7208C251.065 41.1593 250.971 41.6425 250.971 42.1701C250.971 42.6978 251.065 43.181 251.255 43.6195C251.444 44.0581 251.707 44.4427 252.045 44.7687C252.383 45.097 252.781 45.3503 253.241 45.5286C253.701 45.7068 254.205 45.7959 254.751 45.7959C255.251 45.7959 255.736 45.7209 256.205 45.5684C256.674 45.416 257.085 45.1909 257.437 44.8954V42.1279H256.463V44.4263C256.28 44.5459 256.09 44.6491 255.891 44.7171C255.544 44.8344 255.18 44.8954 254.801 44.8954C254.395 44.8954 254.02 44.8273 253.675 44.6937C253.33 44.5576 253.03 44.3677 252.777 44.1214C252.523 43.8752 252.326 43.5843 252.188 43.249C252.05 42.9136 251.979 42.5548 251.979 42.1701C251.979 41.7855 252.05 41.415 252.188 41.0796C252.326 40.7442 252.523 40.4557 252.777 40.2142H252.779Z" fill="white"/>
<path d="M263.729 43.2634C264.168 43.0687 264.505 42.7849 264.742 42.4167C264.979 42.0485 265.096 41.6076 265.096 41.094C265.096 40.5804 264.979 40.1371 264.742 39.7666C264.505 39.396 264.168 39.1122 263.729 38.9152C263.29 38.7206 262.76 38.6221 262.137 38.6221H259.369V45.7165H260.382V43.5565H262.137C262.294 43.5565 262.427 43.5331 262.575 43.519L264.114 45.7142H265.218L263.523 43.3244C263.588 43.3009 263.666 43.2892 263.727 43.2634H263.729ZM262.108 42.6958H260.385V39.5039H262.108C262.758 39.5039 263.248 39.6423 263.584 39.919C263.919 40.1958 264.085 40.5874 264.085 41.094C264.085 41.6006 263.919 41.9946 263.584 42.276C263.248 42.5574 262.758 42.6958 262.108 42.6958Z" fill="white"/>
<path d="M272.635 39.5696C272.295 39.2413 271.896 38.988 271.439 38.8097C270.984 38.6315 270.484 38.54 269.945 38.54C269.405 38.54 268.894 38.6315 268.434 38.8144C267.975 38.9974 267.576 39.253 267.238 39.579C266.9 39.9073 266.635 40.2896 266.448 40.7282C266.258 41.1668 266.164 41.6475 266.164 42.1682C266.164 42.6888 266.258 43.1673 266.448 43.6082C266.638 44.0468 266.9 44.4314 267.238 44.7574C267.576 45.0857 267.977 45.3413 268.439 45.5219C268.901 45.7049 269.403 45.7963 269.945 45.7963C270.486 45.7963 270.984 45.7072 271.439 45.529C271.896 45.3507 272.295 45.0974 272.635 44.7691C272.975 44.4408 273.24 44.0585 273.425 43.6199C273.61 43.1813 273.704 42.6982 273.704 42.1705C273.704 41.6428 273.61 41.1597 273.425 40.7211C273.24 40.2826 272.975 39.898 272.635 39.572V39.5696ZM272.482 43.2541C272.344 43.5847 272.152 43.8732 271.905 44.1195C271.659 44.3657 271.368 44.558 271.033 44.6917C270.7 44.8277 270.336 44.8934 269.942 44.8934C269.548 44.8934 269.178 44.8254 268.842 44.6917C268.507 44.5557 268.216 44.3657 267.965 44.1195C267.714 43.8732 267.522 43.5847 267.381 43.2541C267.243 42.9234 267.173 42.5622 267.173 42.1705C267.173 41.7789 267.243 41.4177 267.381 41.087C267.52 40.7563 267.714 40.4679 267.965 40.2216C268.214 39.9753 268.507 39.7854 268.842 39.6494C269.178 39.5157 269.544 39.4477 269.942 39.4477C270.341 39.4477 270.697 39.5157 271.033 39.6494C271.368 39.7854 271.659 39.9753 271.905 40.2216C272.152 40.4679 272.344 40.7563 272.482 41.087C272.621 41.4177 272.691 41.7789 272.691 42.1705C272.691 42.5622 272.621 42.9234 272.482 43.2541Z" fill="white"/>
<path d="M280.21 42.6165C280.21 43.4068 280.036 43.9838 279.689 44.3496C279.342 44.7155 278.845 44.8961 278.205 44.8961C277.564 44.8961 277.079 44.7132 276.73 44.3496C276.382 43.9838 276.207 43.4068 276.207 42.6165V38.6225H275.193V42.6563C275.193 43.6836 275.461 44.4646 275.993 44.9969C276.528 45.5317 277.26 45.7967 278.193 45.7967C279.126 45.7967 279.867 45.5293 280.398 44.9946C280.928 44.4622 281.193 43.6812 281.193 42.654V38.6201H280.21V42.6141V42.6165Z" fill="white"/>
<path d="M287.627 38.9152C287.189 38.7206 286.659 38.6221 286.035 38.6221H283.268V45.7165H284.281V43.5683H286.035C286.656 43.5683 287.187 43.4698 287.627 43.2704C288.066 43.0711 288.404 42.7873 288.641 42.4191C288.877 42.0509 288.995 41.61 288.995 41.0963C288.995 40.5827 288.877 40.1395 288.641 39.7689C288.404 39.3984 288.066 39.1146 287.627 38.9176V38.9152ZM287.48 42.269C287.144 42.5457 286.654 42.6841 286.005 42.6841H284.281V39.5015H286.005C286.654 39.5015 287.144 39.6399 287.48 39.9167C287.815 40.1934 287.982 40.5851 287.982 41.0916C287.982 41.5982 287.815 41.9899 287.48 42.2666V42.269Z" fill="white"/>
</svg>
